<?xml version="1.0" encoding="UTF-8" standalone="no"?>
<!-- Created with Inkscape (http://www.inkscape.org/) -->

<svg
   width="130.4077mm"
   height="122.45104mm"
   viewBox="0 0 130.4077 122.45104"
   version="1.1"
   id="svg1"
   xmlns="http://www.w3.org/2000/svg"
   xmlns:svg="http://www.w3.org/2000/svg">
  <defs
     id="defs1" />
  <g
     id="layer1">
    <path
       style="fill:#2a1003;stroke-width:0.5"
       d="m 15.55138,122.14222 -1.56373,-0.28241 -2.47356,-0.57591 -2.47357,-0.57591 -1.74851,-0.55332 -1.7485,-0.55332 -0.77379,-0.39171 -0.77379,-0.39171 -0.80184,-0.6054 -0.80185,-0.60539 -0.55782,-0.82271 -0.55783,-0.8227 L 1.01306,115.43749 0.74952,114.91326 0.52311,114.18651 0.29669,113.45976 0.14835,112.22177 0,110.98378 l 0.15493,-1.49854 0.15492,-1.49854 0.17981,-0.93824 0.17982,-0.93823 1.69264,-6.880423 1.69264,-6.88042 0.60765,-2.26741 0.60764,-2.26741 0.42478,-1.56373 0.42479,-1.56373 0.22585,-0.93824 0.22586,-0.93824 0.5662,-1.70701 0.5662,-1.70702 0.49935,-1.20195 0.49935,-1.20194 0.52522,-0.76581 0.52522,-0.76581 0.82664,-0.79024 0.82664,-0.79023 1.45238,-0.73546 1.45238,-0.73546 1.16754,-0.22117 1.16755,-0.22117 3.12746,-0.16682 3.12746,-0.16682 7.740473,-0.16546 7.74047,-0.16546 0.430027,-0.16814 0.430024,-0.16814 v -0.10748 -0.10748 l 1.257269,-1.39599 1.257265,-1.396 0.09667,-0.38516 0.09667,-0.38516 -0.845724,-0.69912 -0.845723,-0.69912 -1.485545,-1.51318 -1.485545,-1.51317 -0.938237,-1.30053 -0.938239,-1.30052 -0.32027,-0.34092 -0.320267,-0.34092 -1.868956,-0.0925 -1.868956,-0.0925 -0.860056,-0.2609 -0.86005,-0.2609 -0.93824,-0.67041 -0.93824,-0.67041 -1.10477,-1.15077 -1.10478,-1.15078 -0.48654,-0.86005 -0.48655,-0.86005 -0.42622,-1.25098 -0.42621,-1.25099 -0.0109,-1.56373 -0.0109,-1.56373 0.35547,-1.25099 0.35547,-1.25098 0.40563,-0.61741 0.40563,-0.61741 0.69783,-0.74603 0.69782,-0.74603 -0.0962,-0.66941 -0.0962,-0.66941 -0.0959,-1.91462 -0.0959,-1.91462 -0.64574,-0.16595 -0.64574,-0.16595 -0.78187,-0.24737 -0.78186,-0.24737 -0.56575,-0.28395 -0.56575,-0.28396 -0.88955,-0.81299 -0.88955,-0.813 -0.4373,-0.64082 -0.4373,-0.64081 -0.33572,-0.97795 -0.33572,-0.97795 v -1.84641 -1.8464 l 0.3219,-1.24134 0.32189,-1.24135 0.84776,-1.7201 0.84776,-1.72011 0.8152,-1.09461 0.81521,-1.09461 1.96356,-1.9609 1.96357,-1.9609 1.98032,-1.47931 1.980335,-1.47931 1.616252,-1.01458 1.616252,-1.01459 2.814717,-1.41399 2.814717,-1.41398 1.641917,-0.63957 1.641919,-0.63957 0.273683,-0.0935 0.273682,-0.0935 -0.01937,-1.92046 L 43.112574,2.278526 43.271703,1.887593 43.430831,1.49666 43.801208,1.152459 44.171587,0.808258 44.917379,0.478359 45.663171,0.14846 46.71372,0.07423 47.764272,0 l 0.852898,0.357399 0.852894,0.357399 0.516578,0.678327 0.516578,0.678326 0.170119,0.675606 0.170122,0.67561 0.277148,0.0725 0.277149,0.0725 1.701654,-0.2929 1.701652,-0.29289 1.903944,-0.23765 1.903945,-0.23764 4.741907,0.0692 4.74191,0.0692 1.32548,0.24573 1.32548,0.24572 1.5302,0.39516 1.5302,0.39516 1.21648,0.38428 1.21648,0.38429 1.52166,0.78179 1.52166,0.78179 1.13023,0.83602 1.13022,0.83601 0.73954,0.8228 0.73954,0.8228 0.53679,0.88583 0.53679,0.88583 0.35186,1.01643 0.35187,1.01642 0.008,1.72011 0.008,1.7201 -0.28038,0.93824 -0.28038,0.93824 -0.69985,1.29097 -0.69985,1.29097 0.11108,0.17973 0.11108,0.17973 0.85289,1.18765 0.8529,1.18763 0.51723,1.02577 0.51723,1.02576 0.2618,0.90057 0.2618,0.90057 -0.0567,2.99942 -0.0567,2.99942 -0.44499,0.86005 -0.44497,0.86006 -0.55849,0.78186 -0.55849,0.78187 -0.0322,5.16031 -0.0322,5.16031 -0.17926,1.95467 -0.17926,1.95466 -0.31486,1.87648 -0.31486,1.87647 -0.31692,1.25099 -0.31692,1.25099 -0.55428,1.48554 -0.55429,1.48554 -0.70496,1.40736 -0.70496,1.40736 -0.63006,0.93824 -0.63005,0.93824 -1.18749,1.1728 -1.1875,1.1728 -1.12479,0.74747 -1.12479,0.74748 -1.96243,1.02432 -1.96244,1.02431 v 0.27261 0.27261 l 2.82886,1.69254 2.82885,1.69253 0.9632,0.70764 0.96319,0.70765 1.40735,1.25989 1.40736,1.2599 0.74455,0.85046 0.74454,0.85045 1.28831,1.85361 1.2883,1.8536 0.71197,1.36478 0.71196,1.36479 1.38141,2.65834 1.3814,2.65834 0.11921,0.13282 0.1192,0.13281 0.32417,-0.10288 0.32416,-0.10289 1.9199,-2.11518 1.91989,-2.11518 0.13021,-0.57309 0.13021,-0.57309 0.21393,-0.8817 0.21392,-0.8817 0.73268,-1.57858 0.73269,-1.57859 -0.17592,-0.21197 -0.17591,-0.21196 -1.44821,-0.4312 -1.44821,-0.4312 -2.00737,-0.63131 -2.00736,-0.6313 -0.725,-0.48732 -0.72501,-0.48732 -0.37199,-0.54731 -0.372,-0.5473 0.084,-1.09462 0.084,-1.09461 1.40422,-4.92575 1.40422,-4.92576 1.51956,-5.39487 1.51955,-5.39487 0.29981,-0.81153 0.29981,-0.81152 0.53754,-0.47197 0.53755,-0.47198 0.61151,-0.16466 0.61151,-0.16466 1.07155,0.15295 1.07156,0.15296 3.04927,0.78929 3.04928,0.78929 1.64192,0.39369 1.64191,0.39369 2.11104,0.55693 2.11104,0.55692 3.98751,1.01332 3.98752,1.01332 1.7201,0.44285 1.72011,0.44286 3.04927,0.8078 3.04928,0.80781 0.65437,0.38029 0.65436,0.3803 0.32297,0.45356 0.32296,0.45356 -0.001,1.07047 -0.001,1.07047 -0.37427,1.64192 -0.37427,1.64192 -0.96353,3.59658 -0.96352,3.59658 -1.17533,4.30026 -1.17532,4.30027 -0.5327,1.64191 -0.5327,1.64192 -0.30156,0.49024 -0.30156,0.49024 -0.91237,0.448 -0.91237,0.448 -1.01643,-0.0203 -1.01643,-0.0203 -1.7495,-0.42106 -1.7495,-0.42105 -0.41886,0.0504 -0.41885,0.0504 -0.58053,1.64191 -0.58053,1.64192 -0.43871,0.86006 -0.4387,0.86005 -0.47647,0.70368 -0.47646,0.70368 -0.71257,0.84235 -0.71257,0.84235 -1.33099,1.09073 -1.33099,1.09072 -0.80836,1.39045 -0.80836,1.390443 -0.90036,1.28948 -0.90035,1.28949 -1.16735,1.48554 -1.16735,1.48555 -1.68914,1.67525 -1.68913,1.67525 -1.5524,1.15534 -1.55239,1.15532 -1.38832,0.78607 -1.38831,0.78607 -1.0571,0.41556 -1.05709,0.41555 -0.89757,0.16946 -0.89757,0.16946 -1.95591,-0.0956 -1.95591,-0.0956 -0.93604,-0.24381 -0.93603,-0.2438 -0.62645,-0.35359 -0.62645,-0.35358 -0.33113,-0.21046 -0.33112,-0.21045 -0.25528,0.098 -0.25527,0.0979 -0.008,2.93691 -0.008,2.9369 -0.11739,1.05585 -0.1174,1.05585 -0.15033,0.15033 -0.15033,0.15033 -0.91248,0.10724 -0.91248,0.10725 -0.13854,-0.21881 -0.13854,-0.21881 -0.003,-5.55125 -0.003,-5.55124 -0.16165,-3.04928 -0.16164,-3.04928 -0.30555,-3.57546 -0.30554,-3.575463 -0.31774,-2.21034 -0.31775,-2.21035 -0.0726,-0.20421 -0.0725,-0.2042 0.22488,-0.53822 0.22488,-0.53821 0.39201,-0.17862 0.39201,-0.17861 0.44141,0.18284 0.44141,0.18283 0.19414,0.31088 0.19414,0.31087 0.31026,1.28738 0.31026,1.28738 0.46221,4.14388 0.4622,4.143893 0.17402,3.1078 0.17402,3.10779 0.13006,0.34209 0.13007,0.34209 0.5977,0.52479 0.5977,0.52479 0.9355,0.60464 0.93549,0.60464 1.07609,0.32685 1.07609,0.32685 1.66694,-0.0804 1.66693,-0.0804 1.01643,-0.34139 1.01642,-0.34139 1.40736,-0.77388 1.40736,-0.77389 1.06876,-0.80088 1.06876,-0.80088 1.3249,-1.25413 1.3249,-1.25413 1.45507,-1.65549 1.45508,-1.6555 0.88155,-1.35315 0.88155,-1.353153 v -0.17149 -0.17149 l -0.11728,-0.003 -0.11728,-0.003 -1.09461,-0.15759 -1.09461,-0.15759 -1.25099,-0.63714 -1.25098,-0.63713 -0.95574,-0.68022 -0.95574,-0.68021 -1.03251,-1.1152 -1.0325,-1.1152 -0.71252,-1.08153 -0.71251,-1.08153 h -0.10191 -0.1019 l -2.82677,2.78283 -2.82677,2.78282 -0.96998,0.80089 -0.96999,0.80089 -0.34948,0.11092 -0.34948,0.11092 -0.28335,-0.34994 -0.28337,-0.34993 v -0.22226 -0.22226 l 0.2354,-0.56337 0.23539,-0.56338 0.79063,-1.0665 0.79063,-1.06651 -1.93874,-3.87725 -1.93874,-3.87725 -0.91332,-1.48554 -0.91332,-1.48555 -0.69321,-0.90972 -0.69321,-0.90972 -1.34033,-1.34033 -1.34033,-1.34033 -1.26164,-0.93671 -1.26164,-0.93672 -0.0504,0.33661 -0.0504,0.3366 0.23767,0.73913 0.23767,0.73912 0.1859,0.98211 0.18591,0.98211 -0.0823,0.9081 -0.0823,0.90811 -0.25825,0.49939 -0.25824,0.49939 -0.8535,0.41859 -0.85349,0.41859 v 0.1284 0.1284 l 0.61533,0.77845 0.61533,0.77846 0.0992,0.31247 0.0992,0.31248 -0.24063,0.82775 -0.24063,0.82775 -0.88727,1.47177 -0.88726,1.47177 -1.33765,1.96073 -1.33764,1.96073 -1.07929,1.40736 -1.07929,1.40735 -1.19628,1.381133 -1.19629,1.38112 -0.46912,0.54886 -0.46912,0.54886 -0.0782,9.17251 -0.0782,9.17251 -1.34691,0.0449 -1.34691,0.0449 -0.10924,-8.56721 -0.10924,-8.5672 -0.0771,-0.2677 -0.0771,-0.26769 -1.90692,-1.70384 -1.906923,-1.70385 -1.954665,-1.819843 -1.954665,-1.81984 -0.113091,-7.9e-4 -0.113088,-8e-4 0.08389,1.52464 0.08389,1.52464 0.263757,1.094613 0.263758,1.09462 -0.009,1.48554 -0.009,1.48554 -0.2553,1.09462 -0.255299,1.09461 -0.09104,0.80659 -0.09103,0.8066 -0.304631,0.88542 -0.304631,0.88543 -0.560496,0.92267 -0.560493,0.92267 -0.491059,0.3564 -0.491058,0.3564 -0.864352,0.46912 -0.864351,0.46911 -0.188249,0.54731 -0.188245,0.54731 -0.404239,1.87648 -0.404241,1.87647 -0.399081,1.29008 -0.399082,1.29008 H 45.25454 43.935303 v -0.0837 -0.0837 l 0.234519,-0.35792 0.234516,-0.35792 0.383858,-1.12858 0.383855,-1.12858 0.304776,-1.43999 0.304776,-1.44 0.105069,-1.19537 0.105068,-1.19538 -0.158046,-0.0977 -0.158046,-0.0977 -0.719442,0.45625 -0.719439,0.45626 -1.016929,0.27527 -1.016926,0.27527 -0.08534,0.13808 -0.08534,0.13808 -0.36112,1.2835 -0.361116,1.2835 -0.602919,2.14957 -0.602922,2.14957 -1.222428,5.3e-4 -1.222431,5.3e-4 0.107167,-0.35184 0.107167,-0.35184 0.289137,-0.93824 0.289134,-0.93824 0.469172,-1.56103 0.46917,-1.56103 -0.143592,-0.14359 -0.143592,-0.14359 -1.141371,0.5482 -1.14137,0.54821 -1.798291,0.72028 -1.79829,0.72029 -1.094611,0.35794 -1.094613,0.35795 -0.156371,1.32917 -0.156374,1.32917 -1.969608,0.10285 -1.9696,0.10284 -1.28321,0.40537 -1.28321,0.40537 -3.54942,-0.0133 -3.54941,-0.0133 z m 8.31841,-1.78751 0.81249,-0.21632 0.67305,-0.37057 0.67305,-0.37058 0.047,-0.32714 0.047,-0.32715 -0.7495,-0.10273 -0.7495,-0.10273 -1.00444,-0.2519 -1.00443,-0.25191 -1.08676,-0.44814 -1.08677,-0.44815 -1.08532,-0.80458 -1.08533,-0.80459 -0.71795,-0.87786 -0.71796,-0.87785 -0.4461,-0.93824 -0.4461,-0.93824 -0.0973,-0.5171 -0.0973,-0.51711 -0.36465,-0.23893 -0.36465,-0.23892 -3.65797,-0.91046 -3.65798,-0.91046 -1.18938,-0.49514 -1.18938,-0.49515 -0.69133,-0.52786 -0.69133,-0.52787 -0.0931,-0.2425 -0.0931,-0.24249 H 3.46154 3.16833 l -0.2981,1.36826 -0.29809,1.36827 0.008,2.18922 0.008,2.18922 0.35457,0.89863 0.35458,0.89862 0.79613,0.8711 0.79614,0.8711 0.92998,0.46945 0.92998,0.46946 2.81347,0.76913 2.81347,0.76913 2.44707,0.47729 2.44707,0.4773 1.56373,0.21214 1.56373,0.21215 1.32917,0.0143 1.32918,0.0143 z m 5.9233,-4.78087 1.708355,-0.3097 1.1728,-0.32585 1.172797,-0.32586 1.44645,-0.6837 1.446454,-0.68369 v -0.14381 -0.1438 l -0.562187,-0.73627 -0.562184,-0.73627 -0.598387,-1.27998 -0.598387,-1.27997 -0.246785,-1.30735 -0.246787,-1.30735 v -2.30918 -2.30918 l -0.237186,-0.19684 -0.237183,-0.19685 -1.028033,0.10533 -1.028033,0.10532 -1.979524,0.52371 -1.97953,0.5237 -1.05532,0.28863 -1.05532,0.28863 -0.48967,-0.48967 -0.48967,-0.48966 0.10435,-0.55627 0.10436,-0.55626 0.40913,-0.32182 0.40912,-0.32182 1.26607,-0.38321 1.26607,-0.383223 1.56373,-0.39196 1.563735,-0.39195 1.230077,-0.23491 1.230077,-0.2349 0.217953,-0.18088 0.217953,-0.18089 0.241176,-0.87868 0.241173,-0.87869 0.379251,-1.26269 0.379251,-1.26268 0.318252,-0.28802 0.318254,-0.28801 h 0.475789 0.47579 l 0.332732,0.33273 0.332735,0.33274 0.06831,0.94431 0.0683,0.94431 h 0.0726 0.0726 l 0.925034,-0.72674 0.925031,-0.72675 v -0.35268 -0.35268 l -0.54092,-2.41469 -0.540919,-2.4147 -0.254947,-0.76705 -0.25495,-0.76704 -0.642086,-1.48555 -0.642088,-1.48554 -0.74491,-1.30147 -0.744913,-1.30147 -0.777291,-1.04413 -0.777293,-1.04413 -0.675515,-0.64779 -0.675519,-0.6478 -0.35811,-0.1075 -0.358111,-0.10751 -1.337471,1.30261 -1.33748,1.3026 -1.34861,1.7983 -1.34861,1.79829 -0.98854,1.56373 -0.98854,1.56373 -1.14929,2.3456 -1.14928,2.34559 -0.8697,2.18923 -0.86969,2.18922 -0.63463,2.11104 -0.63462,2.111043 -0.34471,1.7201 -0.34472,1.7201 -0.006,2.81472 -0.006,2.81472 0.29084,0.92009 0.29084,0.92008 0.51671,0.87821 0.51672,0.8782 0.44343,0.41116 0.44343,0.41116 0.66549,0.41234 0.6655,0.41232 0.844,0.31579 0.844,0.31578 0.67973,0.13367 0.67973,0.13367 1.49729,0.0171 1.49729,0.0172 z m 13.59548,-3.81722 0.622726,-0.25214 0.938239,-1.0213 0.938236,-1.02129 0.547357,-0.0871 0.547354,-0.0871 0.418659,0.32932 0.418655,0.32932 0.186584,0.58395 0.186584,0.58396 0.119515,0.13058 0.119515,0.13059 0.447993,-0.23301 0.447995,-0.23301 0.342133,-0.3667 0.342135,-0.36669 0.319016,-0.70368 0.319019,-0.70368 0.0034,-0.65915 0.0034,-0.65914 -0.478552,-0.54504 -0.478555,-0.54504 -0.814273,-0.30466 -0.814274,-0.30466 -0.872371,-0.109 -0.872371,-0.10899 -0.192,-0.11866 -0.191998,-0.11867 0.05069,-0.53091 0.05069,-0.5309 1.606899,-0.0446 1.606897,-0.0446 0.719484,0.31826 0.719484,0.31826 h 0.218551 0.218554 l 0.152501,-0.40111 0.152503,-0.40111 v -0.70127 -0.70126 l -0.221218,-0.42226 -0.221219,-0.42226 -0.521554,-0.49071 -0.521555,-0.49071 -0.535498,-0.27019 -0.535501,-0.27019 -1.352603,-0.11204 -1.352602,-0.112043 -0.183841,-0.11362 -0.18384,-0.11362 v -0.44075 -0.44074 l 0.211468,-0.17551 0.211471,-0.1755 0.941207,-0.0984 0.941208,-0.0984 1.202923,0.26762 1.20292,0.26763 0.224557,-0.0862 0.224557,-0.0862 v -0.63543 -0.63542 l -0.242485,-0.58137 -0.242483,-0.58138 -0.492239,-0.50859 -0.492236,-0.5086 -0.834876,-0.31236 -0.834875,-0.31237 h -1.018783 -1.018783 l -1.125482,0.2475 -1.12548,0.2475 -1.326877,0.64726 -1.326878,0.64725 -1.586431,1.56812 -1.586431,1.56812 -0.485201,0.860053 -0.4852,0.86006 -0.258361,1.15842 -0.258363,1.15842 0.08485,1.57811 0.08485,1.57811 0.399989,1.25098 0.399989,1.25099 0.45525,0.7177 0.45525,0.71771 0.627176,0.52654 0.627177,0.52655 0.525869,0.20061 0.525873,0.20061 1.175565,-0.0593 1.175565,-0.0593 z m -28.44728,-3.81141 0.17177,-0.11488 0.0983,-1.7611 0.0983,-1.7611 0.38921,-1.91367 0.38921,-1.91367 0.37814,-1.257293 0.37815,-1.2573 1.04696,-2.79305 1.04697,-2.79306 0.99838,-2.20457 0.99839,-2.20458 0.38371,-1.49255 0.38371,-1.49255 0.16916,-1.2162 0.16916,-1.2162 v -1.38835 -1.38834 l -0.17597,-0.82866 -0.17596,-0.82865 -0.44026,-0.87632 -0.44025,-0.87632 -0.79871,-0.7181 -0.7987,-0.7181 -0.85835,-0.32116 -0.85836,-0.32115 H 16.95993 16.4256 l -1.00314,0.36413 -1.00315,0.36411 -0.76316,0.4459 -0.76317,0.44589 -0.92304,0.871 -0.92304,0.871 -0.58831,1.25098 -0.5883,1.25099 -0.86051,2.81471 -0.86051,2.81472 -0.8033,2.8929 -0.80329,2.8929 -0.23597,0.84035 -0.23597,0.84035 -0.38765,1.50525 -0.38764,1.50525 -0.54059,2.71007 -0.54059,2.710083 v 0.66067 0.66068 l 0.32537,0.9635 0.32538,0.96349 0.50991,0.4477 0.50991,0.44771 1.31484,0.4245 1.31485,0.4245 3.04928,0.68691 3.04927,0.68691 0.0782,0.007 0.0782,0.007 z M 60.8214,99.302967 v -0.16139 l -0.23798,-0.56959 -0.23799,-0.56958 -1.753327,-2.74832 -1.753328,-2.74833 -2.200876,-3.20565 -2.200873,-3.20565 -1.072057,-1.48554 -1.072057,-1.48554 -1.810499,-2.33137 -1.810501,-2.33137 -1.887575,-2.20345 -1.887574,-2.20346 -0.55581,-0.5864 -0.555811,-0.5864 h -0.177001 -0.177003 l -0.312746,0.31275 -0.312745,0.31275 0.0028,0.11728 0.0028,0.11728 1.327634,1.87647 1.327632,1.87648 1.031687,2.07116 1.031687,2.07116 0.589619,1.6818 0.589621,1.68179 0.837745,0.27466 0.837745,0.27466 0.374653,0.37466 0.374655,0.37465 -0.103013,0.54911 -0.103013,0.54911 -0.473014,0.88641 -0.473014,0.8864 0.198416,0.23908 0.198416,0.23908 1.178301,0.95464 1.178303,0.95465 3.049276,2.52157 3.049275,2.52158 1.876478,1.43014 1.876474,1.43015 0.11728,0.002 0.11728,0.002 z m 4.64708,-2.02783 0.91836,-1.1728 1.87685,-2.65834 1.87686,-2.65834 0.72826,-1.09461 0.72826,-1.09461 0.0962,-0.40603 0.0962,-0.40603 -0.92843,-1.16834 -0.92844,-1.16834 -0.19306,-0.36073 -0.19305,-0.36073 0.29735,-0.4105 0.29735,-0.4105 1.36052,-0.6595 1.36052,-0.65949 v -0.78911 -0.78912 l -0.61578,-1.86185 -0.61578,-1.86185 -0.4886,-1.17369 -0.48861,-1.17368 -0.39043,-0.25582 -0.39044,-0.25582 -0.26337,0.0507 -0.26337,0.0507 -0.18076,1.40541 -0.18075,1.40541 -0.57099,3.28383 -0.571,3.28384 -0.32118,1.56373 -0.32119,1.56373 -0.76507,3.04928 -0.76506,3.04928 -0.70407,2.39178 -0.70407,2.39178 v 0.31869 0.31868 l 0.14425,-0.0521 0.14425,-0.0521 z m 40.57127,-1.19531 0.7302,-0.22882 1.0681,-0.75315 1.06809,-0.75316 0.87059,-0.91946 0.8706,-0.91948 0.67222,-1.13431 0.67223,-1.13431 0.44885,-1.28947 0.44884,-1.28947 0.002,-0.58038 0.002,-0.58037 -0.66459,-0.1741 -0.66459,-0.17411 -1.56373,-0.44011 -1.56373,-0.44012 -0.48549,-0.087 -0.48549,-0.087 -0.32145,0.22515 -0.32146,0.22516 -0.58192,0.79274 -0.58193,0.79274 0.0937,0.79084 0.0937,0.79084 -0.25528,1.16174 -0.25527,1.16175 -0.46512,0.39137 -0.46511,0.39136 -0.48637,-0.0474 -0.48638,-0.0474 0.028,-0.54731 0.028,-0.5473 0.10964,-1.20857 0.10963,-1.20856 -0.18982,-0.45826 -0.18982,-0.45826 0.19521,-0.36603 0.1952,-0.36603 0.82539,-1.02267 0.82539,-1.02267 0.47805,-0.90878 0.47804,-0.90878 v -0.43591 -0.43592 l -0.28359,-0.35022 -0.28359,-0.35023 -0.78766,-0.0757 -0.78766,-0.0757 -0.68795,0.30757 -0.68794,0.30757 -0.78187,0.6526 -0.78186,0.65261 -1.27321,-0.0239 -1.27321,-0.024 -0.18844,0.11646 -0.18845,0.11647 -0.67678,1.04619 -0.67677,1.04619 -0.33988,1.00713 -0.33987,1.00713 0.0596,1.64192 0.0596,1.64192 0.40192,0.86005 0.40192,0.86005 0.62673,0.75258 0.62674,0.75258 0.84279,0.63796 0.84279,0.63795 1.27068,0.61341 1.27068,0.61341 0.76217,0.11949 0.76217,0.11949 0.5473,-0.0656 0.54731,-0.0656 z m -43.51431,-1.033 0.16455,-0.50822 0.3156,-1.32917 0.3156,-1.32917 10e-4,-0.75502 10e-4,-0.75501 -0.8019,-2.44532 -0.8019,-2.44533 -0.2958,-0.69007 -0.2958,-0.69007 -0.63532,0.0852 -0.63532,0.0852 -0.0891,0.0891 -0.0891,0.0891 -0.19467,1.44869 -0.19468,1.4487 -0.259726,1.45097 -0.259728,1.45097 0.102846,0.34732 0.102846,0.34732 0.746842,1.1728 0.74684,1.1728 0.71999,1.1337 0.72,1.13371 h 0.22558 0.22559 z m -18.279757,-2.29595 1.09048,-0.30219 0.176919,-0.10934 0.176921,-0.10934 -0.109241,-1.26948 -0.109241,-1.26948 -0.610124,-2.39763 -0.610124,-2.39762 -0.571026,-1.43352 -0.571026,-1.43352 -0.823722,-1.64786 -0.823722,-1.64786 -0.943042,-1.40141 -0.943041,-1.40142 -0.831474,-0.84218 -0.831477,-0.84219 -0.507778,-0.21525 -0.50778,-0.21525 -0.650952,0.10409 -0.650951,0.10409 -0.952302,0.65169 -0.952302,0.65169 -0.05448,0.28292 -0.05448,0.28293 1.24892,1.26971 1.248921,1.26972 0.689242,0.95122 0.689242,0.95122 1.190763,2.33261 1.19076,2.33262 0.565314,1.62969 0.565317,1.6297 0.386847,1.52611 0.38685,1.5261 7.94e-4,0.28441 7.93e-4,0.28441 0.162851,0.5864 0.162851,0.5864 h 0.541936 0.541935 z m 12.838533,-5.75727 0.164399,-0.43003 0.09012,-1.37874 0.09012,-1.37875 -0.918075,-0.92776 -0.918078,-0.92775 H 55.327457 55.06221 l -0.638794,0.80229 -0.638794,0.80229 v 0.15244 0.15244 l 1.351743,1.7818 1.351745,1.7818 h 0.215858 0.215858 z m 7.799144,-0.86005 0.14592,-0.35184 0.24166,-1.22862 0.24166,-1.22862 v -0.49802 -0.49802 l -0.6705,-0.65805 -0.67051,-0.65805 H 64.00764 63.8437 l -0.40683,0.94287 -0.40683,0.94287 0.62806,1.67208 0.62806,1.67207 0.0751,0.12159 0.0752,0.12158 h 0.15049 0.1505 z m 56.22936,-0.69629 -0.093,-0.24228 -1.22465,-2.05224 -1.22464,-2.05223 -1.06143,-1.79829 -1.06142,-1.79829 -1.47671,-2.3065 -1.47671,-2.30651 h -0.28728 -0.28729 l -1.68854,0.82096 -1.68854,0.82096 -1.17825,-2e-5 -1.17825,-3e-5 -0.84761,-0.46909 -0.8476,-0.46909 -0.74902,-0.89982 -0.74902,-0.89981 -0.41199,-0.70301 -0.41199,-0.70301 -0.2588,5.3e-4 -0.25879,5.2e-4 -1.79829,0.98738 -1.79829,0.98738 -3.87073,2.14221 -3.87072,2.1422 -0.53994,0.25748 -0.53995,0.25748 -0.0706,0.18396 -0.0706,0.18397 0.10795,0.17467 0.10796,0.17468 4.45149,1.23579 4.45149,1.23578 0.78353,0.19815 0.78353,0.19815 0.71868,-0.48503 0.71869,-0.48504 0.71166,-0.30505 0.71166,-0.30505 0.67903,-0.10061 0.67902,-0.10061 0.77846,0.17571 0.77846,0.17571 0.52864,0.40321 0.52864,0.40321 0.29229,0.64365 0.2923,0.64364 0.003,0.56726 0.003,0.56725 0.21333,0.17704 0.21333,0.17705 6.00251,1.5436 6.0025,1.54359 0.28578,-0.14976 0.28578,-0.14975 z m 1.95,-2.74392 0.17323,-0.66459 0.29395,-1.01642 0.29396,-1.01643 1.03472,-3.90933 1.03472,-3.90932 0.71961,-2.65835 0.71962,-2.65834 0.0677,-0.66458 0.0677,-0.66459 -0.2894,7.9e-4 -0.2894,8e-4 -1.01642,0.54529 -1.01643,0.5453 -1.95466,1.00866 -1.95467,1.00867 -2.65834,1.38938 -2.65834,1.38938 -0.0402,0.30068 -0.0402,0.30067 1.41425,2.26741 1.41424,2.26741 1.97243,3.40112 1.97243,3.40111 h 0.28314 0.28313 z m -62.25234,-1.20627 0.602,-0.30712 0.17363,-0.49808 0.17363,-0.49808 -5.3e-4,-0.64125 -5.2e-4,-0.64125 -0.29296,-0.46912 -0.29296,-0.46912 -0.86325,-0.91751 -0.86325,-0.91751 -0.207513,0.0692 -0.207513,0.0692 -1.056597,1.70839 -1.056598,1.7084 -0.0029,0.15183 -0.0029,0.15184 0.894252,0.90368 0.894249,0.90368 h 0.7539 0.7539 z m -35.22045,-1.01273 0.92559,-1.16348 2.33659,-2.43872 2.336589,-2.43873 v -0.18984 -0.18985 l -3.127459,0.0528 -3.12747,0.0528 -1.95466,0.0575 -1.95467,0.0575 -0.11727,0.007 -0.11728,0.007 v 0.13871 0.13872 l 1.14813,1.15136 1.14813,1.15136 0.52233,1.09461 0.52232,1.09462 0.0693,1.29007 0.0693,1.29008 h 0.19751 0.19751 z m 28.395282,-0.6739 1.150265,-1.52464 1.279234,-1.82106 1.279232,-1.82106 v -0.24166 -0.24165 l -0.139325,-0.0861 -0.139327,-0.0861 -1.85443,-0.53489 -1.854432,-0.5349 -1.56373,-0.54454 -1.563733,-0.54454 -1.250984,-0.54572 -1.250985,-0.54572 -1.3209,-0.64356 -1.320901,-0.64356 h -0.313573 -0.313574 l -0.515657,0.49979 -0.515657,0.49979 v 0.41736 0.41736 l 0.347202,0.45111 0.347202,0.45112 2.43376,2.81471 2.433761,2.81472 1.452756,1.7592 1.452758,1.7592 h 0.295386 0.295389 z m 12.266818,-1.17704 0.19211,-0.58637 0.31217,-1.83528 0.31216,-1.83528 0.043,-0.93824 0.043,-0.93824 -0.62549,0.01 -0.6255,0.01 -1.40736,0.17637 -1.40735,0.17637 -1.09462,0.45177 -1.09461,0.45178 -0.0508,0.26242 -0.0508,0.26243 2.39635,2.49072 2.39636,2.49073 0.23456,-0.031 0.23456,-0.031 z m 26.75196,-5.36873 3.07956,-1.65911 2.70991,-1.56627 2.70992,-1.56628 0.0796,-0.20741 0.0796,-0.20741 -3.53667,-5.3241 -3.53668,-5.32411 H 94.4564 94.32357 l -0.15212,0.19547 -0.15212,0.19547 -0.6437,2.26741 -0.6437,2.26741 -1.7253,6.06259 -1.72529,6.0626 v 0.23142 0.23143 h 0.32155 0.32156 z m 18.13119,-1.87693 1.68029,-0.87769 3.28384,-1.69597 3.28383,-1.69597 3.90933,-2.02206 3.90933,-2.02206 0.0466,-0.30446 0.0466,-0.30447 -2.62678,-0.65159 -2.62678,-0.65159 -5.08212,-1.33347 -5.08213,-1.33347 -5.7858,-1.4729 -5.78581,-1.47291 -1.84795,-0.47693 -1.84795,-0.47693 h -0.46346 -0.46346 l -0.0774,0.20172 -0.0774,0.20172 1.55702,2.33934 1.557,2.33935 3.83633,5.81981 3.83633,5.81982 0.65462,0.4742 0.65461,0.4742 h 0.91551 0.9155 z m -46.79538,-1.38605 1.56373,-0.22517 1.1728,-0.30568 1.1728,-0.30567 1.54831,-0.63546 1.54831,-0.63547 1.32621,-0.82459 1.3262,-0.82458 1.32304,-1.24271 1.32304,-1.24271 0.66057,-0.86833 0.66056,-0.86833 0.56783,-0.9455 0.56783,-0.9455 0.47785,-1.19335 0.47784,-1.19336 0.38432,-1.45773 0.38433,-1.45772 0.31534,-2.26741 0.31534,-2.26741 0.15904,-2.18923 0.15904,-2.18922 -0.001,-2.58015 -10e-4,-2.58016 -0.15735,-1.87648 -0.15734,-1.87648 -0.16667,-1.1728 -0.16666,-1.17279 -0.22529,-0.35184 -0.22529,-0.35184 h -0.37891 -0.37891 l -1.17642,-0.60877 -1.17643,-0.60877 -1.29487,-1.01954 -1.29487,-1.01953 -1.48245,-1.49916 -1.48246,-1.49916 h -0.34292 -0.34292 l -0.71621,1.07735 -0.71622,1.07734 -1.4158,1.34732 -1.4158,1.34731 -1.43748,0.69719 -1.43748,0.69718 -1.47334,0.39247 -1.47333,0.39246 -1.11722,0.10124 -1.117224,0.10124 -1.162399,-0.19485 -1.162399,-0.19486 -1.277564,-0.44961 -1.277562,-0.4496 h -0.432567 -0.432568 l -1.104585,0.30748 -1.104588,0.30749 -1.388747,0.23982 -1.388748,0.23982 h -2.13464 -2.134637 l -0.991661,2.05149 -0.991661,2.05149 -0.946809,1.41549 -0.946806,1.41549 -1.535842,1.59457 -1.535843,1.59456 v 0.7293 0.7293 l -0.35184,0.13079 -0.351838,0.13078 -0.234561,-0.0825 -0.234559,-0.0825 -0.894265,-0.84158 -0.894262,-0.84159 -0.904029,-0.42361 -0.904028,-0.42361 H 30.719528 29.1558 l -0.69638,0.39093 -0.69638,0.39094 -0.50239,0.65953 -0.50239,0.65953 -0.34917,0.9042 -0.34918,0.9042 0.003,1.56373 0.003,1.56373 0.31715,0.8863 0.31715,0.8863 0.5187,0.75562 0.51871,0.75562 0.78062,0.75004 0.78062,0.75004 1.140119,0.56348 1.140124,0.56348 1.175366,0.0754 1.175369,0.0754 1.093076,-0.26568 1.093076,-0.26567 0.306282,0.0972 0.306281,0.0972 0.733748,1.39164 0.733748,1.39163 0.986496,1.31443 0.986499,1.31443 1.284941,1.20879 1.284944,1.20878 1.120256,0.75594 1.120256,0.75594 1.409163,0.7118 1.409161,0.7118 1.781955,0.69354 1.781956,0.69353 1.973558,0.49102 1.973559,0.49102 1.544836,0.21038 1.544839,0.21038 2.189222,0.0133 2.18923,0.0133 z m -2.92723,-8.21801 -0.73801,-0.12433 -0.89892,-0.41154 -0.898925,-0.41154 -0.840693,-0.63473 -0.840695,-0.63473 -0.218783,-0.52363 -0.218784,-0.52362 0.149815,-0.39405 0.149815,-0.39404 0.410075,-0.10293 0.410077,-0.10292 0.416415,0.32925 0.416412,0.32925 0.913881,0.6273 0.91388,0.6273 0.64985,0.18068 0.64985,0.18069 1.0234,-0.0137 1.02341,-0.0136 1.1266,-0.41759 1.12659,-0.41759 0.40485,0.26526 0.40484,0.26527 -0.10415,0.41739 -0.10415,0.41739 -0.26147,0.29029 -0.26147,0.2903 -0.60298,0.30774 -0.60298,0.30774 -1.03894,0.22021 -1.03894,0.22021 -0.39093,-0.0157 -0.39093,-0.0157 z m 2.69406,-6.13912 -0.38955,-0.19709 -0.0534,-0.27724 -0.0534,-0.27724 0.20616,-0.24841 0.20617,-0.24841 0.70589,-0.29848 0.70589,-0.29847 0.19547,-0.25736 0.19547,-0.25735 v -0.4272 -0.42721 l -0.46898,-0.46897 -0.46897,-0.46897 -0.54865,-0.18107 -0.54865,-0.18108 -0.1552,-0.28998 -0.15519,-0.28998 0.15086,-0.39681 0.15086,-0.3968 0.40591,-0.10188 0.40591,-0.10187 0.6219,0.0834 0.6219,0.0834 0.53694,0.40955 0.53694,0.40954 0.42567,0.55808 0.42567,0.55808 0.0648,0.89614 0.0648,0.89614 -0.31528,0.61321 -0.31528,0.61321 -0.44435,0.42007 -0.44435,0.42008 -0.4402,0.16632 -0.44021,0.16632 -0.49803,-0.002 -0.49804,-0.002 z m -11.982833,-4.08255 -0.488024,-0.2185 -0.424304,-0.55629 -0.424307,-0.5563 -0.221377,-0.73558 -0.221377,-0.73558 v -0.80682 -0.80682 l 0.241271,-0.81245 0.241273,-0.81245 0.475271,-0.5413 0.475271,-0.54131 0.53444,-0.14756 0.534443,-0.14757 0.534442,0.14757 0.534442,0.14756 0.477817,0.54421 0.477819,0.5442 0.258537,0.88934 0.258538,0.88934 -0.09536,1.02116 -0.09536,1.02116 -0.432668,0.85744 -0.432668,0.85744 -0.390932,0.27883 -0.390933,0.27884 -0.469119,0.08 -0.46912,0.08 z m 19.954033,-0.0716 -0.54486,-0.29018 -0.44081,-0.70728 -0.44081,-0.70727 -0.17404,-1.01605 -0.17404,-1.01604 0.28599,-1.0565 0.28598,-1.0565 0.48279,-0.54987 0.48279,-0.54987 0.51198,-0.21392 0.51197,-0.21392 0.42871,0.10364 0.42871,0.10364 0.43357,0.30311 0.43356,0.30311 0.30134,0.59067 0.30133,0.59066 0.18369,0.99899 0.18369,0.99899 -0.26006,1.01643 -0.26007,1.01643 -0.39524,0.5987 -0.39523,0.59871 -0.53192,0.22225 -0.53192,0.22225 H 72.90381 72.6227 Z m -23.414434,-10.50444 -0.35184,-0.14142 v -0.61834 -0.61835 l 0.630454,-0.53965 0.630457,-0.53964 0.894181,-0.28956 0.894183,-0.28955 1.02733,0.005 1.027329,0.004 0.458216,0.17431 0.458216,0.17431 0.425511,0.0927 0.425513,0.0927 0.174184,0.32546 0.174183,0.32547 -0.08949,0.35657 -0.08949,0.35658 -0.480288,0.19894 -0.480287,0.19894 -0.831078,-0.19938 -0.83108,-0.19937 -0.952966,0.0689 -0.952965,0.0689 -0.83747,0.57679 -0.83747,0.57679 -0.06674,-0.01 -0.06674,-0.01 z m 26.997614,-0.62583 -0.71952,-0.47066 -0.87502,-0.18354 -0.87502,-0.18354 -1.2102,0.28531 -1.21019,0.2853 -0.28725,-0.35474 -0.28726,-0.35474 0.10031,-0.33005 0.1003,-0.33004 0.23445,-0.2672 0.23446,-0.26719 0.80257,-0.27262 0.80256,-0.27262 0.8613,0.006 0.8613,0.006 1.06476,0.35433 1.06476,0.35433 0.615,0.58504 0.61501,0.58504 v 0.40398 0.40398 l -0.24573,0.24572 -0.24573,0.24573 -0.34067,-0.002 -0.34067,-0.002 z m -38.749654,0.83858 0.718714,-0.75518 0.699199,-0.93824 0.699196,-0.93824 0.584358,-0.9727 0.584359,-0.97272 0.673926,-1.45107 0.673925,-1.45107 0.181226,-0.56061 0.181229,-0.56061 0.467188,-0.44759 0.467191,-0.4476 3.086685,-0.0177 3.086684,-0.0177 1.113544,-0.25781 1.113547,-0.25782 1.232051,-0.48684 1.232051,-0.48684 1.016425,-0.55835 1.016426,-0.55836 1.016424,-0.71035 1.016426,-0.71034 0.798724,-0.67464 0.798726,-0.67463 h 0.49135 0.49136 l 0.30877,0.30877 0.30877,0.30877 0.0991,0.39491 0.0991,0.39491 -0.10222,0.43003 -0.10222,0.43002 -1.55665,1.51921 -1.556653,1.5192 v 0.15056 0.15055 l 0.869209,0.1086 0.869214,0.1086 0.94353,-0.10675 0.94353,-0.10675 1.17816,-0.45367 1.17816,-0.45366 1.04024,-0.618 1.04025,-0.618 1.26384,-1.31645 1.26385,-1.31645 0.95464,-1.41975 0.95463,-1.41975 0.52874,-0.1745 0.52874,-0.1745 0.29752,0.10992 0.29752,0.10991 1.56373,1.43064 1.56373,1.43064 1.04274,0.87486 1.04275,0.87486 1.38104,0.9285 1.38103,0.92851 0.84881,0.43003 0.84882,0.43004 1.02766,0.0224 1.02767,0.0223 0.047,-1.09038 0.047,-1.09039 -0.248,-1.11474 -0.24801,-1.11474 -0.5356,-1.11761 -0.5356,-1.11762 -0.74897,-0.72909 -0.74897,-0.72909 -1.26463,-0.60755 -1.26462,-0.60755 -1.4719,-0.29814 -1.47191,-0.29813 -1.61939,-0.16371 -1.6194,-0.1637 -2.75905,0.003 -2.75905,0.003 -1.48555,0.15494 -1.48555,0.15494 -1.32917,0.24378 -1.32917,0.24378 -2.551833,0.54451 -2.551835,0.5445 -2.360728,0.7043 -2.360727,0.70429 -2.749719,1.02829 -2.749722,1.02829 -2.189223,0.92961 -2.189224,0.92962 -2.092332,1.09019 -2.092333,1.09019 -1.426065,0.8963 -1.426062,0.8963 -1.720104,1.32473 -1.720103,1.32471 -0.67709,0.67314 -0.67709,0.67314 -0.32042,0.72436 -0.32043,0.72437 0.005,1.44669 0.005,1.4467 0.10269,0.16614 0.10268,0.16615 h 1.538035 1.538031 l 0.993804,0.31708 0.993804,0.31707 0.702683,0.37013 0.702683,0.37012 0.391927,-0.28386 0.39193,-0.28385 z m -8.870026,-7.44646 0.95815,-0.98366 0.78186,-0.63869 0.781866,-0.63868 1.563732,-1.00855 1.56373,-1.00855 1.798291,-1.02542 1.798291,-1.02541 2.032852,-1.01497 2.032849,-1.01497 1.954665,-0.86245 1.954665,-0.86244 2.26741,-0.81666 2.26741,-0.81666 0.860052,-0.2829 0.860052,-0.2829 1.641917,-0.4728 1.641919,-0.47279 1.720104,-0.38464 1.720104,-0.38464 1.329171,-0.24515 1.32917,-0.24516 1.95467,-0.25403 1.95466,-0.25403 4.22207,-0.0829 4.22208,-0.0829 1.95466,0.26318 1.95467,0.26317 1.54213,0.31024 1.54212,0.31023 0.36618,-0.23992 0.36617,-0.23993 0.42471,-0.72472 0.42472,-0.72472 0.28623,-1.03225 0.28624,-1.03225 v -0.6515 -0.6515 l -0.30714,-0.9938 -0.30713,-0.99381 -0.45241,-0.713 -0.45241,-0.713 -0.80397,-0.80398 -0.80398,-0.80398 -0.6648,-0.45617 -0.6648,-0.45616 -1.09461,-0.54839 -1.09461,-0.54838 -1.48554,-0.55231 -1.48555,-0.55232 -1.95466,-0.48177 -1.95467,-0.48177 -1.94999,-0.23643 -1.95,-0.23643 h -2.52916 -2.52916 l -1.619398,0.1612 -1.619393,0.1612 -2.189226,0.38443 -2.189223,0.38442 -1.877335,0.45915 -1.877335,0.45915 -1.562873,0.49725 -1.562875,0.49726 -2.736527,1.0976 -2.73653,1.0976 -2.423784,1.20327 -2.423785,1.20327 -1.641917,0.98555 -1.641916,0.98554 -1.250987,0.87822 -1.250986,0.87821 -1.56876,1.35308 -1.56876,1.35308 -0.86587,0.99438 -0.86587,0.99438 -0.64145,0.86005 -0.64144,0.86005 -0.52812,0.93824 -0.5281,0.93824 -0.41002,1.02619 -0.41002,1.02618 -0.16578,1.19188 -0.16577,1.19188 0.13434,1.06577 0.13434,1.06578 0.2299,0.5473 0.22989,0.54731 0.43263,0.51308 0.43263,0.51309 0.71053,0.48886 0.71054,0.48885 0.87429,0.27973 0.87429,0.27972 0.68377,0.008 0.68377,0.008 z M 47.614985,5.100327 47.99881,4.716507 v -0.6813 -0.6813 L 47.671047,3.002087 47.343284,2.650277 46.957188,2.503487 46.571092,2.356693 H 46.41779 46.264491 l -0.383826,0.383824 -0.383826,0.38382 v 0.676 0.67599 l 0.251293,0.35877 0.251291,0.35877 0.335108,0.13523 0.335108,0.13524 0.28076,0.01 0.28076,0.01 z m 17.572845,105.478603 -0.4571,-0.45709 v -0.81229 -0.8123 l 0.6071,-0.60709 0.6071,-0.6071 h 0.5841 0.5841 l 0.62685,0.62686 0.62687,0.62686 -0.0779,0.81031 -0.0779,0.8103 -0.49167,0.43931 -0.49168,0.43932 h -0.79143 -0.79142 z"
       id="path60" />
  </g>
</svg>
